<?xml version="1.0" standalone="yes"?>

<svg version="1.1" viewBox="0.0 0.0 290.48556430446195 132.76377952755905" fill="none" stroke="none" stroke-linecap="square" stroke-miterlimit="10" xmlns="http://www.w3.org/2000/svg" xmlns:xlink="http://www.w3.org/1999/xlink"><clipPath id="p.0"><path d="m0 0l290.48557 0l0 132.76378l-290.48557 0l0 -132.76378z" clip-rule="nonzero"></path></clipPath><g clip-path="url(#p.0)"><path fill="#000000" fill-opacity="0.0" d="m0 0l290.48557 0l0 132.76378l-290.48557 0z" fill-rule="nonzero"></path><path fill="#000000" fill-opacity="0.0" d="m0 -8.0l290.4882 0l0 79.43307l-290.4882 0z" fill-rule="nonzero"></path><path fill="#000000" d="m19.009323 62.440002l0 -44.359375l29.953125 0l0 8.390625l-19.96875 0l0 8.703125l17.71875 0l0 8.1875l-17.71875 0l0 10.6875l21.4375 0l0 8.390625l-31.421875 0zm50.877686 -7.609375q2.109375 0 3.484375 -0.34375q1.375 -0.359375 2.203125 -0.96875q0.84375 -0.609375 1.15625 -1.4375q0.328125 -0.84375 0.328125 -1.859375q0 -2.1875 -2.0625 -3.625q-2.046875 -1.4375 -7.03125 -3.09375q-2.171875 -0.78125 -4.359375 -1.765625q-2.171875 -1.0 -3.90625 -2.5q-1.71875 -1.5 -2.8125 -3.640625q-1.078125 -2.140625 -1.078125 -5.21875q0 -3.078125 1.140625 -5.53125q1.15625 -2.46875 3.265625 -4.1875q2.109375 -1.734375 5.125 -2.65625q3.015625 -0.9375 6.78125 -0.9375q4.484375 0 7.75 0.96875q3.265625 0.953125 5.375 2.109375l-2.875 7.859375q-1.859375 -0.953125 -4.140625 -1.6875q-2.265625 -0.734375 -5.46875 -0.734375q-3.578125 0 -5.15625 1.0q-1.5625 0.984375 -1.5625 3.03125q0 1.21875 0.578125 2.046875q0.578125 0.828125 1.625 1.5q1.0625 0.671875 2.4375 1.21875q1.375 0.546875 3.046875 1.125q3.453125 1.28125 6.0 2.53125q2.5625 1.234375 4.265625 2.90625q1.703125 1.65625 2.53125 3.90625q0.828125 2.234375 0.828125 5.4375q0 6.203125 -4.359375 9.625q-4.34375 3.421875 -13.109375 3.421875q-2.953125 0 -5.328125 -0.359375q-2.359375 -0.34375 -4.1875 -0.84375q-1.8125 -0.515625 -3.125 -1.09375q-1.3125 -0.578125 -2.203125 -1.09375l2.8125 -7.9375q1.984375 1.09375 4.890625 1.96875q2.90625 0.859375 7.140625 0.859375zm54.84169 7.609375q-0.703125 -2.296875 -1.5625 -4.734375q-0.859375 -2.4375 -1.703125 -4.859375l-17.28125 0q-0.828125 2.421875 -1.6875 4.859375q-0.859375 2.4375 -1.5625 4.734375l-10.375 0q2.5 -7.171875 4.734375 -13.25q2.234375 -6.078125 4.375 -11.453125q2.15625 -5.375 4.234375 -10.203125q2.078125 -4.84375 4.3125 -9.453125l9.546875 0q2.171875 4.609375 4.28125 9.453125q2.109375 4.828125 4.25 10.203125q2.15625 5.375 4.390625 11.453125q2.25 6.078125 4.734375 13.25l-10.6875 0zm-11.96875 -34.296875q-0.3125 0.953125 -0.953125 2.625q-0.640625 1.65625 -1.484375 3.84375q-0.828125 2.171875 -1.828125 4.796875q-0.984375 2.609375 -2.0 5.5l12.609375 0q-1.03125 -2.890625 -2.0 -5.5q-0.953125 -2.625 -1.8125 -4.796875q-0.859375 -2.1875 -1.5 -3.84375q-0.640625 -1.671875 -1.03125 -2.625zm35.909546 17.203125q0 4.421875 1.984375 7.109375q1.984375 2.6875 5.890625 2.6875q1.28125 0 2.359375 -0.09375q1.09375 -0.09375 1.796875 -0.21875l0 -17.34375q-0.890625 -0.578125 -2.34375 -0.953125q-1.4375 -0.390625 -2.90625 -0.390625q-6.78125 0 -6.78125 9.203125zm21.5625 16.0q-1.28125 0.390625 -2.953125 0.75q-1.65625 0.34375 -3.484375 0.59375q-1.8125 0.265625 -3.703125 0.421875q-1.890625 0.15625 -3.609375 0.15625q-4.171875 0 -7.4375 -1.203125q-3.25 -1.21875 -5.5 -3.484375q-2.234375 -2.28125 -3.421875 -5.515625q-1.1875 -3.234375 -1.1875 -7.265625q0 -4.09375 1.015625 -7.390625q1.03125 -3.296875 2.953125 -5.59375q1.921875 -2.3125 4.703125 -3.53125q2.796875 -1.21875 6.375 -1.21875q1.984375 0 3.546875 0.390625q1.578125 0.390625 3.171875 1.09375l0 -15.234375l9.53125 -1.53125l0 48.5625zm40.452805 -15.796875q0 3.96875 -1.15625 7.265625q-1.15625 3.28125 -3.328125 5.625q-2.171875 2.34375 -5.21875 3.625q-3.03125 1.265625 -6.8125 1.265625q-3.703125 0 -6.75 -1.265625q-3.046875 -1.28125 -5.21875 -3.625q-2.171875 -2.34375 -3.390625 -5.625q-1.21875 -3.296875 -1.21875 -7.265625q0 -3.96875 1.25 -7.234375q1.25 -3.265625 3.453125 -5.5625q2.21875 -2.3125 5.25 -3.59375q3.046875 -1.28125 6.625 -1.28125q3.65625 0 6.6875 1.28125q3.046875 1.28125 5.21875 3.59375q2.171875 2.296875 3.390625 5.5625q1.21875 3.265625 1.21875 7.234375zm-9.734375 0q0 -4.421875 -1.765625 -6.953125q-1.75 -2.53125 -5.015625 -2.53125q-3.265625 0 -5.0625 2.53125q-1.78125 2.53125 -1.78125 6.953125q0 4.40625 1.78125 7.0q1.796875 2.59375 5.0625 2.59375q3.265625 0 5.015625 -2.59375q1.765625 -2.59375 1.765625 -7.0zm15.488556 0.0625q0 -3.65625 1.1875 -6.875q1.1875 -3.234375 3.421875 -5.640625q2.25 -2.40625 5.4375 -3.8125q3.203125 -1.40625 7.296875 -1.40625q2.6875 0 4.921875 0.484375q2.25 0.484375 4.359375 1.375l-1.984375 7.609375q-1.34375 -0.5 -2.953125 -0.890625q-1.59375 -0.390625 -3.578125 -0.390625q-4.21875 0 -6.296875 2.625q-2.078125 2.625 -2.078125 6.921875q0 4.546875 1.953125 7.046875q1.953125 2.484375 6.8125 2.484375q1.734375 0 3.71875 -0.3125q1.984375 -0.328125 3.640625 -1.03125l1.34375 7.8125q-1.65625 0.703125 -4.15625 1.203125q-2.5 0.515625 -5.5 0.515625q-4.609375 0 -7.9375 -1.375q-3.328125 -1.375 -5.484375 -3.734375q-2.140625 -2.375 -3.140625 -5.609375q-0.984375 -3.234375 -0.984375 -7.0zm43.26555 9.984375q2.625 0 3.703125 -0.515625q1.09375 -0.515625 1.09375 -1.984375q0 -1.15625 -1.40625 -2.015625q-1.40625 -0.859375 -4.28125 -1.953125q-2.234375 -0.828125 -4.0624847 -1.71875q-1.828125 -0.90625 -3.109375 -2.15625q-1.28125 -1.25 -1.984375 -2.96875q-0.703125 -1.734375 -0.703125 -4.15625q0 -4.75 3.515625 -7.5q3.5312347 -2.75 9.67186 -2.75q3.0625 0 5.875 0.546875q2.828125 0.546875 4.484375 1.1875l-1.65625 7.421875q-1.671875 -0.578125 -3.625 -1.015625q-1.9375 -0.453125 -4.375 -0.453125q-4.484375 0 -4.484375 2.484375q0 0.578125 0.1875 1.03125q0.203125 0.453125 0.78125 0.875q0.578125 0.40625 1.5625 0.890625q0.984375 0.46875 2.53125 1.046875q3.125 1.15625 5.171875 2.28125q2.0625 1.109375 3.234375 2.421875q1.1875 1.3125 1.671875 2.921875q0.484375 1.59375 0.484375 3.703125q0 5.0 -3.75 7.5625q-3.75 2.546875 -10.59375 2.546875q-4.4843597 0 -7.4687347 -0.765625q-2.96875 -0.765625 -4.109375 -1.28125l1.59375 -7.734375q2.4375 0.953125 4.984375 1.5q2.5624847 0.546875 5.0624847 0.546875z" fill-rule="nonzero"></path><path fill="#000000" fill-opacity="0.0" d="m-0.015748031 53.97638l290.4882 0l0 72.7874l-290.4882 0z" fill-rule="nonzero"></path><path fill="#999999" d="m76.453896 112.35695q-2.046875 0.5 -5.40625 1.078125q-3.359375 0.578125 -7.765625 0.578125q-3.84375 0 -6.46875 -1.109375q-2.625 -1.125 -4.234375 -3.171875q-1.59375 -2.046875 -2.296875 -4.828125q-0.703125 -2.796875 -0.703125 -6.1875l0 -18.6875l5.953125 0l0 17.40625q0 6.078125 1.921875 8.703125q1.921875 2.625 6.46875 2.625q0.953125 0 1.96875 -0.0625q1.03125 -0.0625 1.921875 -0.15625q0.90625 -0.09375 1.640625 -0.1875q0.734375 -0.109375 1.046875 -0.234375l0 -28.09375l5.953125 0l0 32.328125zm33.345306 -15.625q0 -5.828125 -2.875 -8.953125q-2.875 -3.140625 -7.6875 -3.140625q-2.6875 0 -4.1875 0.203125q-1.5 0.1875 -2.390625 0.4375l0 20.984375q1.078125 0.90625 3.125 1.734375q2.046875 0.828125 4.484375 0.828125q2.5625 0 4.375 -0.921875q1.828125 -0.9375 2.984375 -2.5625q1.15625 -1.625 1.65625 -3.828125q0.515625 -2.21875 0.515625 -4.78125zm6.21875 0q0 3.78125 -1.0 6.984375q-0.984375 3.1875 -2.90625 5.5q-1.921875 2.296875 -4.703125 3.578125q-2.78125 1.28125 -6.375 1.28125q-2.875 0 -5.09375 -0.765625q-2.203125 -0.765625 -3.28125 -1.46875l0 13.3125l-5.953125 0l0 -44.09375q2.109375 -0.515625 5.265625 -1.125q3.171875 -0.609375 7.34375 -0.609375q3.828125 0 6.90625 1.21875q3.078125 1.21875 5.25 3.453125q2.171875 2.234375 3.359375 5.46875q1.1875 3.234375 1.1875 7.265625zm18.36782 17.21875q-5.515625 -0.125 -7.8281326 -2.359375q-2.296875 -2.25 -2.296875 -6.984375l0 -39.9375l5.9531326 -1.0156212l0 39.999996q0 1.46875 0.25 2.4375q0.265625 0.953125 0.84375 1.53125q0.578125 0.5625 1.53125 0.859375q0.96875 0.28125 2.375 0.46875l-0.828125 5.0zm36.86258 -17.28125q0 3.96875 -1.15625 7.171875q-1.15625 3.203125 -3.234375 5.515625q-2.078125 2.296875 -4.96875 3.546875q-2.875 1.234375 -6.265625 1.234375q-3.390625 0 -6.265625 -1.234375q-2.875 -1.25 -4.96875 -3.546875q-2.078125 -2.3125 -3.234375 -5.515625q-1.140625 -3.203125 -1.140625 -7.171875q0 -3.90625 1.140625 -7.140625q1.15625 -3.234375 3.234375 -5.53125q2.09375 -2.296875 4.96875 -3.546875q2.875 -1.25 6.265625 -1.25q3.390625 0 6.265625 1.25q2.890625 1.25 4.96875 3.546875q2.078125 2.296875 3.234375 5.53125q1.15625 3.234375 1.15625 7.140625zm-6.21875 0q0 -5.625 -2.53125 -8.921875q-2.515625 -3.296875 -6.875 -3.296875q-4.34375 0 -6.875 3.296875q-2.53125 3.296875 -2.53125 8.921875q0 5.625 2.53125 8.921875q2.53125 3.296875 6.875 3.296875q4.359375 0 6.875 -3.296875q2.53125 -3.296875 2.53125 -8.921875zm25.869324 12.359375q2.109375 0 3.734375 -0.09375q1.640625 -0.109375 2.71875 -0.359375l0 -9.921875q-0.640625 -0.3125 -2.078125 -0.53125q-1.4375 -0.234375 -3.484375 -0.234375q-1.34375 0 -2.859375 0.1875q-1.5 0.1875 -2.75 0.796875q-1.234375 0.609375 -2.078125 1.671875q-0.828125 1.046875 -0.828125 2.78125q0 3.203125 2.046875 4.453125q2.046875 1.25 5.578125 1.25zm-0.515625 -29.828125q3.578125 0 6.046875 0.9375q2.46875 0.921875 3.96875 2.625q1.5 1.6875 2.140625 4.03125q0.640625 2.328125 0.640625 5.140625l0 20.796875q-0.765625 0.125 -2.140625 0.359375q-1.375 0.21875 -3.109375 0.40625q-1.71875 0.203125 -3.75 0.359375q-2.015625 0.15625 -3.984375 0.15625q-2.828125 0 -5.203125 -0.578125q-2.359375 -0.578125 -4.09375 -1.8125q-1.71875 -1.25 -2.6875 -3.296875q-0.953125 -2.0625 -0.953125 -4.9375q0 -2.75 1.109375 -4.734375q1.125 -1.984375 3.046875 -3.203125q1.921875 -1.21875 4.484375 -1.78125q2.5625 -0.578125 5.375 -0.578125q0.890625 0 1.84375 0.09375q0.96875 0.09375 1.828125 0.25q0.875 0.15625 1.515625 0.296875q0.640625 0.125 0.890625 0.1875l0 -1.671875q0 -1.46875 -0.328125 -2.90625q-0.3125 -1.4375 -1.140625 -2.546875q-0.828125 -1.125 -2.28125 -1.796875q-1.4375 -0.671875 -3.734375 -0.671875q-2.9375 0 -5.15625 0.421875q-2.203125 0.40625 -3.296875 0.84375l-0.703125 -4.921875q1.15625 -0.515625 3.84375 -0.984375q2.6875 -0.484375 5.828125 -0.484375zm44.15793 7.875q-1.09375 -0.90625 -3.140625 -1.734375q-2.046875 -0.828125 -4.46875 -0.828125q-2.5625 0 -4.390625 0.9375q-1.828125 0.921875 -2.984375 2.546875q-1.140625 1.625 -1.65625 3.875q-0.515625 2.234375 -0.515625 4.796875q0 5.828125 2.875 9.0q2.890625 3.15625 7.6875 3.15625q2.4375 0 4.0625 -0.21875q1.640625 -0.21875 2.53125 -0.484375l0 -21.046875zm0 -22.40625l5.953125 -1.0156212l0 48.70312q-2.046875 0.5625 -5.25 1.140625q-3.203125 0.578125 -7.359375 0.578125q-3.84375 0 -6.921875 -1.203125q-3.0625 -1.21875 -5.25 -3.453125q-2.171875 -2.25 -3.359375 -5.484375q-1.171875 -3.234375 -1.171875 -7.265625q0 -3.84375 0.984375 -7.03125q1.0 -3.203125 2.921875 -5.5q1.921875 -2.3125 4.703125 -3.59375q2.78125 -1.28125 6.359375 -1.28125q2.890625 0 5.09375 0.765625q2.203125 0.765625 3.296875 1.46875l0 -16.828125z" fill-rule="nonzero"></path></g></svg>

